<svg id="emWNb89OafD1" xmlns="http://www.w3.org/2000/svg" xmlns:xlink="http://www.w3.org/1999/xlink" viewBox="0 0 34 34" shape-rendering="geometricPrecision" text-rendering="geometricPrecision" project-id="5b8ec9bd8e2f4113a91d5d46cb6645f8" export-id="605139350f594d8aa8daa0cdfc45121a" cached="false"><path d="M17,34c9.3888,0,17-7.6112,17-17s-7.6112-17-17-17-17,7.61116-17,17s7.61114,17,17,17ZM22.3034,7.91931c.2582-.91697-.6317-1.4592-1.4444-.88021L9.51415,15.1211C8.63278,15.749,8.77142,17,9.7224,17h2.9874v-.0232h5.8223l-4.7441,1.674-2.0914,7.4299c-.2581.917.6316,1.4592,1.4444.8802l11.3449-8.082C25.3672,18.251,25.2285,17,24.2776,17h-4.5303l2.5561-9.08069Z" clip-rule="evenodd" fill="#2563eb" fill-rule="evenodd"/></svg>
